<svg xmlns="http://www.w3.org/2000/svg" width="1600" height="980" viewBox="0 0 1600 980" fill="none">
  <rect width="1600" height="980" rx="40" fill="#F2F2F4"/>
  <rect x="40" y="40" width="1520" height="430" rx="32" fill="#FAFAFB"/>
  <rect x="40" y="510" width="1520" height="430" rx="32" fill="#1A1919"/>
  <text x="90" y="118" fill="#232328" font-family="Inter, Segoe UI, sans-serif" font-size="44" font-weight="800" letter-spacing="-1.5">Rookie Mark</text>
  <text x="90" y="154" fill="#6D6E78" font-family="Inter, Segoe UI, sans-serif" font-size="22" font-weight="600">A stacked-card direction inspired by classic hobby marks, with minimal sports equipment icons inside each card</text>
  <text x="90" y="588" fill="#E5E5E5" font-family="Inter, Segoe UI, sans-serif" font-size="44" font-weight="800" letter-spacing="-1.5">Rookie Mark</text>
  <text x="90" y="624" fill="#A0A0AB" font-family="Inter, Segoe UI, sans-serif" font-size="22" font-weight="600">A stacked-card direction inspired by classic hobby marks, with minimal sports equipment icons inside each card</text>

  <g transform="translate(90 206)">
    <g>
      <rect width="420" height="200" rx="30" fill="#FFFFFF" stroke="#E7E7EC"/>
      <text x="32" y="42" fill="#8A8A96" font-family="Inter, Segoe UI, sans-serif" font-size="13" font-weight="800" letter-spacing="3">ICON</text>
      <g transform="translate(108 10)">
        <g transform="translate(6 0) rotate(17 86 80)">
          <rect x="0" y="0" width="152" height="156" rx="34" fill="#14A1BE"/>
        </g>
        <g transform="translate(90 36) rotate(13 48 58)">
          <rect x="0" y="0" width="96" height="116" rx="20" fill="#232328"/>
          <rect x="12" y="12" width="72" height="78" rx="14" fill="#FAFAFB"/>
          <rect x="62" y="16" width="18" height="8" rx="4" fill="#B8B8C7"/>
          <path d="M33 66L52 47" stroke="#232328" stroke-width="6" stroke-linecap="round"/>
          <path d="M49 50L60 39" stroke="#232328" stroke-width="6" stroke-linecap="round"/>
          <circle cx="63" cy="76" r="5" fill="#232328"/>
          <rect x="18" y="92" width="60" height="12" rx="6" fill="#232328"/>
        </g>
        <g transform="translate(54 22) rotate(8 56 66)">
          <rect x="0" y="0" width="112" height="132" rx="24" fill="#232328"/>
          <rect x="14" y="14" width="84" height="88" rx="16" fill="#FAFAFB"/>
          <rect x="72" y="18" width="20" height="9" rx="4.5" fill="#B8B8C7"/>
          <path d="M36 80L56 52" stroke="#232328" stroke-width="7" stroke-linecap="round"/>
          <path d="M55 79L68 90" stroke="#232328" stroke-width="7" stroke-linecap="round"/>
          <circle cx="73" cy="86" r="6" fill="#232328"/>
          <rect x="24" y="106" width="64" height="13" rx="6.5" fill="#232328"/>
        </g>
        <g transform="translate(18 20) rotate(-12 62 72)">
          <rect x="0" y="0" width="124" height="144" rx="26" fill="#232328"/>
          <rect x="16" y="16" width="92" height="98" rx="18" fill="#FAFAFB"/>
          <rect x="76" y="20" width="22" height="10" rx="5" fill="#B8B8C7"/>
          <path d="M34 82L71 45" stroke="#232328" stroke-width="8" stroke-linecap="round"/>
          <path d="M61 55L78 38" stroke="#232328" stroke-width="8" stroke-linecap="round"/>
          <circle cx="74" cy="82" r="8" fill="#232328"/>
          <rect x="24" y="118" width="76" height="14" rx="7" fill="#232328"/>
        </g>
      </g>
    </g>
    <g transform="translate(470 0)">
      <rect width="420" height="200" rx="30" fill="#FFFFFF" stroke="#E7E7EC"/>
      <text x="32" y="42" fill="#8A8A96" font-family="Inter, Segoe UI, sans-serif" font-size="13" font-weight="800" letter-spacing="3">WORDMARK</text>
      <text x="56" y="116" fill="#232328" font-family="Inter, Segoe UI, sans-serif" font-size="62" font-weight="800" letter-spacing="-3" textLength="308" lengthAdjust="spacingAndGlyphs">Cardventory</text>
      <text x="90" y="148" fill="#6D6E78" font-family="Inter, Segoe UI, sans-serif" font-size="22" font-weight="600">Your Collection, Dialed In</text>
    </g>
    <g transform="translate(940 0)">
      <rect width="420" height="200" rx="30" fill="#FFFFFF" stroke="#E7E7EC"/>
      <text x="32" y="42" fill="#8A8A96" font-family="Inter, Segoe UI, sans-serif" font-size="13" font-weight="800" letter-spacing="3">LOGO</text>
      <text x="56" y="126" fill="#232328" font-family="Inter, Segoe UI, sans-serif" font-size="62" font-weight="800" letter-spacing="-3" textLength="308" lengthAdjust="spacingAndGlyphs">Cardventory</text>
    </g>
  </g>

  <g transform="translate(90 676)">
    <g>
      <rect width="420" height="200" rx="30" fill="#232328" stroke="#34343A"/>
      <text x="32" y="42" fill="#B8B8C7" font-family="Inter, Segoe UI, sans-serif" font-size="13" font-weight="800" letter-spacing="3">ICON</text>
      <g transform="translate(108 10)">
        <g transform="translate(6 0) rotate(17 86 80)">
          <rect x="0" y="0" width="152" height="156" rx="34" fill="#14A1BE"/>
        </g>
        <g transform="translate(90 36) rotate(13 48 58)">
          <rect x="0" y="0" width="96" height="116" rx="20" fill="#E5E5E5"/>
          <rect x="12" y="12" width="72" height="78" rx="14" fill="#232328"/>
          <rect x="62" y="16" width="18" height="8" rx="4" fill="#B8B8C7"/>
          <path d="M33 66L52 47" stroke="#E5E5E5" stroke-width="6" stroke-linecap="round"/>
          <path d="M49 50L60 39" stroke="#E5E5E5" stroke-width="6" stroke-linecap="round"/>
          <circle cx="63" cy="76" r="5" fill="#E5E5E5"/>
          <rect x="18" y="92" width="60" height="12" rx="6" fill="#E5E5E5"/>
        </g>
        <g transform="translate(54 22) rotate(8 56 66)">
          <rect x="0" y="0" width="112" height="132" rx="24" fill="#E5E5E5"/>
          <rect x="14" y="14" width="84" height="88" rx="16" fill="#232328"/>
          <rect x="72" y="18" width="20" height="9" rx="4.5" fill="#B8B8C7"/>
          <path d="M36 80L56 52" stroke="#E5E5E5" stroke-width="7" stroke-linecap="round"/>
          <path d="M55 79L68 90" stroke="#E5E5E5" stroke-width="7" stroke-linecap="round"/>
          <circle cx="73" cy="86" r="6" fill="#E5E5E5"/>
          <rect x="24" y="106" width="64" height="13" rx="6.5" fill="#E5E5E5"/>
        </g>
        <g transform="translate(18 20) rotate(-12 62 72)">
          <rect x="0" y="0" width="124" height="144" rx="26" fill="#E5E5E5"/>
          <rect x="16" y="16" width="92" height="98" rx="18" fill="#232328"/>
          <rect x="76" y="20" width="22" height="10" rx="5" fill="#B8B8C7"/>
          <path d="M34 82L71 45" stroke="#E5E5E5" stroke-width="8" stroke-linecap="round"/>
          <path d="M61 55L78 38" stroke="#E5E5E5" stroke-width="8" stroke-linecap="round"/>
          <circle cx="74" cy="82" r="8" fill="#E5E5E5"/>
          <rect x="24" y="118" width="76" height="14" rx="7" fill="#E5E5E5"/>
        </g>
      </g>
    </g>
    <g transform="translate(470 0)">
      <rect width="420" height="200" rx="30" fill="#232328" stroke="#34343A"/>
      <text x="32" y="42" fill="#B8B8C7" font-family="Inter, Segoe UI, sans-serif" font-size="13" font-weight="800" letter-spacing="3">WORDMARK</text>
      <text x="56" y="116" fill="#E5E5E5" font-family="Inter, Segoe UI, sans-serif" font-size="62" font-weight="800" letter-spacing="-3" textLength="308" lengthAdjust="spacingAndGlyphs">Cardventory</text>
      <text x="90" y="148" fill="#B8B8C7" font-family="Inter, Segoe UI, sans-serif" font-size="22" font-weight="600">Your Collection, Dialed In</text>
    </g>
    <g transform="translate(940 0)">
      <rect width="420" height="200" rx="30" fill="#232328" stroke="#34343A"/>
      <text x="32" y="42" fill="#B8B8C7" font-family="Inter, Segoe UI, sans-serif" font-size="13" font-weight="800" letter-spacing="3">LOGO</text>
      <text x="56" y="126" fill="#E5E5E5" font-family="Inter, Segoe UI, sans-serif" font-size="62" font-weight="800" letter-spacing="-3" textLength="308" lengthAdjust="spacingAndGlyphs">Cardventory</text>
    </g>
  </g>
</svg>