<svg xmlns="http://www.w3.org/2000/svg" width="540" height="190" viewBox="0 0 540 190" fill="none">
  <g transform="translate(14 34) scale(0.72)">
      <g transform="translate(8 0) rotate(17 78 80)">
        <rect x="0" y="0" width="140" height="148" rx="32" fill="#14A1BE"/>
      </g>
      <g transform="translate(92 34) rotate(13 44 54)">
        <rect x="0" y="0" width="88" height="108" rx="18" fill="#232328"/>
        <rect x="11" y="11" width="66" height="72" rx="13" fill="#FAFAFB"/>
        <rect x="57" y="15" width="17" height="8" rx="4" fill="#B8B8C7"/>
        <path d="M31 61L48 44" stroke="#232328" stroke-width="6" stroke-linecap="round"/>
        <path d="M46 47L56 37" stroke="#232328" stroke-width="6" stroke-linecap="round"/>
        <circle cx="58" cy="70" r="5" fill="#232328"/>
        <rect x="17" y="86" width="54" height="11" rx="5.5" fill="#232328"/>
      </g>
      <g transform="translate(58 20) rotate(8 52 62)">
        <rect x="0" y="0" width="104" height="124" rx="22" fill="#232328"/>
        <rect x="13" y="13" width="78" height="82" rx="15" fill="#FAFAFB"/>
        <rect x="67" y="17" width="18" height="8" rx="4" fill="#B8B8C7"/>
        <path d="M33 74L51 49" stroke="#232328" stroke-width="7" stroke-linecap="round"/>
        <path d="M50 73L62 83" stroke="#232328" stroke-width="7" stroke-linecap="round"/>
        <circle cx="67" cy="80" r="5.5" fill="#232328"/>
        <rect x="22" y="98" width="58" height="12" rx="6" fill="#232328"/>
      </g>
      <g transform="translate(20 18) rotate(-12 58 68)">
        <rect x="0" y="0" width="116" height="136" rx="24" fill="#232328"/>
        <rect x="15" y="15" width="86" height="94" rx="17" fill="#FAFAFB"/>
        <rect x="70" y="19" width="21" height="9" rx="4.5" fill="#B8B8C7"/>
        <path d="M32 78L66 44" stroke="#232328" stroke-width="8" stroke-linecap="round"/>
        <path d="M57 53L73 37" stroke="#232328" stroke-width="8" stroke-linecap="round"/>
        <circle cx="69" cy="78" r="7" fill="#232328"/>
        <rect x="22" y="112" width="70" height="13" rx="6.5" fill="#232328"/>
      </g>
  </g>
  <g transform="translate(158 66)">
    <text x="0" y="56" fill="#E5E5E5" font-family="Inter, Segoe UI, sans-serif" font-size="60" font-weight="800" letter-spacing="-3">Cardventory</text>
    <text x="33" y="92" fill="#B8B8C7" font-family="Inter, Segoe UI, sans-serif" font-size="22" font-weight="600">Your Collection, Dialed In</text>
  </g>
</svg>